<svg width="900" height="408" viewBox="0 0 900 408" fill="none" xmlns="http://www.w3.org/2000/svg">
    <path d="M0 0H900V272C900 272 505.5 395 253.5 407C149.325 411.961 0 373 0 373V0Z"
        fill="#AD48FA" />
    <path
        d="M92.93 231H84.83V187.62H92.93V231ZM139.213 187.62V231H135.073C134.433 231 133.893 230.9 133.453 230.7C133.033 230.48 132.623 230.12 132.223 229.62L109.573 200.7C109.693 202.02 109.753 203.24 109.753 204.36V231H102.643V187.62H106.873C107.213 187.62 107.503 187.64 107.743 187.68C108.003 187.7 108.223 187.76 108.403 187.86C108.603 187.94 108.793 188.07 108.973 188.25C109.153 188.41 109.353 188.63 109.573 188.91L132.313 217.95C132.253 217.25 132.203 216.56 132.163 215.88C132.123 215.2 132.103 214.57 132.103 213.99V187.62H139.213ZM171.973 195.51C171.733 195.93 171.473 196.24 171.193 196.44C170.933 196.62 170.603 196.71 170.203 196.71C169.783 196.71 169.323 196.56 168.823 196.26C168.343 195.94 167.763 195.59 167.083 195.21C166.403 194.83 165.603 194.49 164.683 194.19C163.783 193.87 162.713 193.71 161.473 193.71C160.353 193.71 159.373 193.85 158.533 194.13C157.693 194.39 156.983 194.76 156.403 195.24C155.843 195.72 155.423 196.3 155.143 196.98C154.863 197.64 154.723 198.37 154.723 199.17C154.723 200.19 155.003 201.04 155.563 201.72C156.143 202.4 156.903 202.98 157.843 203.46C158.783 203.94 159.853 204.37 161.053 204.75C162.253 205.13 163.483 205.54 164.743 205.98C166.003 206.4 167.233 206.9 168.433 207.48C169.633 208.04 170.703 208.76 171.643 209.64C172.583 210.5 173.333 211.56 173.893 212.82C174.473 214.08 174.763 215.61 174.763 217.41C174.763 219.37 174.423 221.21 173.743 222.93C173.083 224.63 172.103 226.12 170.803 227.4C169.523 228.66 167.953 229.66 166.093 230.4C164.233 231.12 162.103 231.48 159.703 231.48C158.323 231.48 156.963 231.34 155.623 231.06C154.283 230.8 152.993 230.42 151.753 229.92C150.533 229.42 149.383 228.82 148.303 228.12C147.223 227.42 146.263 226.64 145.423 225.78L147.793 221.91C147.993 221.63 148.253 221.4 148.573 221.22C148.893 221.02 149.233 220.92 149.593 220.92C150.093 220.92 150.633 221.13 151.213 221.55C151.793 221.95 152.483 222.4 153.283 222.9C154.083 223.4 155.013 223.86 156.073 224.28C157.153 224.68 158.443 224.88 159.943 224.88C162.243 224.88 164.023 224.34 165.283 223.26C166.543 222.16 167.173 220.59 167.173 218.55C167.173 217.41 166.883 216.48 166.303 215.76C165.743 215.04 164.993 214.44 164.053 213.96C163.113 213.46 162.043 213.04 160.843 212.7C159.643 212.36 158.423 211.99 157.183 211.59C155.943 211.19 154.723 210.71 153.523 210.15C152.323 209.59 151.253 208.86 150.313 207.96C149.373 207.06 148.613 205.94 148.033 204.6C147.473 203.24 147.193 201.57 147.193 199.59C147.193 198.01 147.503 196.47 148.123 194.97C148.763 193.47 149.683 192.14 150.883 190.98C152.083 189.82 153.563 188.89 155.323 188.19C157.083 187.49 159.103 187.14 161.383 187.14C163.943 187.14 166.303 187.54 168.463 188.34C170.623 189.14 172.463 190.26 173.983 191.7L171.973 195.51ZM212.103 194.25H199.023V231H190.953V194.25H177.873V187.62H212.103V194.25ZM230.889 208.26C232.409 208.26 233.729 208.07 234.849 207.69C235.989 207.31 236.919 206.79 237.639 206.13C238.379 205.45 238.929 204.65 239.289 203.73C239.649 202.81 239.829 201.8 239.829 200.7C239.829 198.5 239.099 196.81 237.639 195.63C236.199 194.45 233.989 193.86 231.009 193.86H225.849V208.26H230.889ZM251.649 231H244.359C242.979 231 241.979 230.46 241.359 229.38L232.239 215.49C231.899 214.97 231.519 214.6 231.099 214.38C230.699 214.16 230.099 214.05 229.299 214.05H225.849V231H217.779V187.62H231.009C233.949 187.62 236.469 187.93 238.569 188.55C240.689 189.15 242.419 190 243.759 191.1C245.119 192.2 246.119 193.52 246.759 195.06C247.399 196.58 247.719 198.26 247.719 200.1C247.719 201.56 247.499 202.94 247.059 204.24C246.639 205.54 246.019 206.72 245.199 207.78C244.399 208.84 243.399 209.77 242.199 210.57C241.019 211.37 239.669 212 238.149 212.46C238.669 212.76 239.149 213.12 239.589 213.54C240.029 213.94 240.429 214.42 240.789 214.98L251.649 231ZM273.442 224.49C275.002 224.49 276.392 224.23 277.612 223.71C278.852 223.19 279.892 222.46 280.732 221.52C281.572 220.58 282.212 219.44 282.652 218.1C283.112 216.76 283.342 215.26 283.342 213.6V187.62H291.412V213.6C291.412 216.18 290.992 218.57 290.152 220.77C289.332 222.95 288.142 224.84 286.582 226.44C285.042 228.02 283.162 229.26 280.942 230.16C278.722 231.04 276.222 231.48 273.442 231.48C270.642 231.48 268.132 231.04 265.912 230.16C263.692 229.26 261.802 228.02 260.242 226.44C258.702 224.84 257.512 222.95 256.672 220.77C255.852 218.57 255.442 216.18 255.442 213.6V187.62H263.512V213.57C263.512 215.23 263.732 216.73 264.172 218.07C264.632 219.41 265.282 220.56 266.122 221.52C266.982 222.46 268.022 223.19 269.242 223.71C270.482 224.23 271.882 224.49 273.442 224.49ZM330.304 220.77C330.744 220.77 331.134 220.94 331.474 221.28L334.654 224.73C332.894 226.91 330.724 228.58 328.144 229.74C325.584 230.9 322.504 231.48 318.904 231.48C315.684 231.48 312.784 230.93 310.204 229.83C307.644 228.73 305.454 227.2 303.634 225.24C301.814 223.28 300.414 220.94 299.434 218.22C298.474 215.5 297.994 212.53 297.994 209.31C297.994 206.05 298.514 203.07 299.554 200.37C300.594 197.65 302.054 195.31 303.934 193.35C305.834 191.39 308.094 189.87 310.714 188.79C313.334 187.69 316.234 187.14 319.414 187.14C322.574 187.14 325.374 187.66 327.814 188.7C330.274 189.74 332.364 191.1 334.084 192.78L331.384 196.53C331.224 196.77 331.014 196.98 330.754 197.16C330.514 197.34 330.174 197.43 329.734 197.43C329.434 197.43 329.124 197.35 328.804 197.19C328.484 197.01 328.134 196.8 327.754 196.56C327.374 196.3 326.934 196.02 326.434 195.72C325.934 195.42 325.354 195.15 324.694 194.91C324.034 194.65 323.264 194.44 322.384 194.28C321.524 194.1 320.524 194.01 319.384 194.01C317.444 194.01 315.664 194.36 314.044 195.06C312.444 195.74 311.064 196.74 309.904 198.06C308.744 199.36 307.844 200.96 307.204 202.86C306.564 204.74 306.244 206.89 306.244 209.31C306.244 211.75 306.584 213.92 307.264 215.82C307.964 217.72 308.904 219.32 310.084 220.62C311.264 221.92 312.654 222.92 314.254 223.62C315.854 224.3 317.574 224.64 319.414 224.64C320.514 224.64 321.504 224.58 322.384 224.46C323.284 224.34 324.104 224.15 324.844 223.89C325.604 223.63 326.314 223.3 326.974 222.9C327.654 222.48 328.324 221.97 328.984 221.37C329.184 221.19 329.394 221.05 329.614 220.95C329.834 220.83 330.064 220.77 330.304 220.77ZM370.482 194.25H357.402V231H349.332V194.25H336.252V187.62H370.482V194.25ZM384.258 231H376.158V187.62H384.258V231ZM435.341 209.31C435.341 212.49 434.811 215.44 433.751 218.16C432.711 220.86 431.231 223.2 429.311 225.18C427.391 227.16 425.081 228.71 422.381 229.83C419.681 230.93 416.681 231.48 413.381 231.48C410.101 231.48 407.111 230.93 404.411 229.83C401.711 228.71 399.391 227.16 397.451 225.18C395.531 223.2 394.041 220.86 392.981 218.16C391.921 215.44 391.391 212.49 391.391 209.31C391.391 206.13 391.921 203.19 392.981 200.49C394.041 197.77 395.531 195.42 397.451 193.44C399.391 191.46 401.711 189.92 404.411 188.82C407.111 187.7 410.101 187.14 413.381 187.14C415.581 187.14 417.651 187.4 419.591 187.92C421.531 188.42 423.311 189.14 424.931 190.08C426.551 191 428.001 192.13 429.281 193.47C430.581 194.79 431.681 196.27 432.581 197.91C433.481 199.55 434.161 201.33 434.621 203.25C435.101 205.17 435.341 207.19 435.341 209.31ZM427.091 209.31C427.091 206.93 426.771 204.8 426.131 202.92C425.491 201.02 424.581 199.41 423.401 198.09C422.221 196.77 420.781 195.76 419.081 195.06C417.401 194.36 415.501 194.01 413.381 194.01C411.261 194.01 409.351 194.36 407.651 195.06C405.971 195.76 404.531 196.77 403.331 198.09C402.151 199.41 401.241 201.02 400.601 202.92C399.961 204.8 399.641 206.93 399.641 209.31C399.641 211.69 399.961 213.83 400.601 215.73C401.241 217.61 402.151 219.21 403.331 220.53C404.531 221.83 405.971 222.83 407.651 223.53C409.351 224.23 411.261 224.58 413.381 224.58C415.501 224.58 417.401 224.23 419.081 223.53C420.781 222.83 422.221 221.83 423.401 220.53C424.581 219.21 425.491 217.61 426.131 215.73C426.771 213.83 427.091 211.69 427.091 209.31ZM478.998 187.62V231H474.858C474.218 231 473.678 230.9 473.238 230.7C472.818 230.48 472.408 230.12 472.008 229.62L449.358 200.7C449.478 202.02 449.538 203.24 449.538 204.36V231H442.428V187.62H446.658C446.998 187.62 447.288 187.64 447.528 187.68C447.788 187.7 448.008 187.76 448.188 187.86C448.388 187.94 448.578 188.07 448.758 188.25C448.938 188.41 449.138 188.63 449.358 188.91L472.098 217.95C472.038 217.25 471.988 216.56 471.948 215.88C471.908 215.2 471.888 214.57 471.888 213.99V187.62H478.998ZM511.578 214.62L506.298 200.19C506.038 199.55 505.768 198.79 505.488 197.91C505.208 197.03 504.928 196.08 504.648 195.06C504.388 196.08 504.118 197.04 503.838 197.94C503.558 198.82 503.288 199.59 503.028 200.25L497.778 214.62H511.578ZM525.828 231H519.588C518.888 231 518.318 230.83 517.878 230.49C517.438 230.13 517.108 229.69 516.888 229.17L513.648 220.32H495.678L492.438 229.17C492.278 229.63 491.968 230.05 491.508 230.43C491.048 230.81 490.478 231 489.798 231H483.498L500.568 187.62H508.788L525.828 231ZM555.728 224.34V231H530.318V187.62H538.388V224.34H555.728ZM122 259.62L104.48 303H97.19L79.67 259.62H86.15C86.85 259.62 87.42 259.79 87.86 260.13C88.3 260.47 88.63 260.91 88.85 261.45L99.08 287.91C99.42 288.77 99.74 289.72 100.04 290.76C100.36 291.78 100.66 292.85 100.94 293.97C101.18 292.85 101.44 291.78 101.72 290.76C102 289.72 102.31 288.77 102.65 287.91L112.82 261.45C112.98 260.99 113.29 260.57 113.75 260.19C114.23 259.81 114.81 259.62 115.49 259.62H122ZM134.59 303H126.49V259.62H134.59V303ZM182.823 281.31C182.823 284.49 182.293 287.41 181.233 290.07C180.173 292.73 178.683 295.02 176.763 296.94C174.843 298.86 172.533 300.35 169.833 301.41C167.133 302.47 164.133 303 160.833 303H144.303V259.62H160.833C164.133 259.62 167.133 260.16 169.833 261.24C172.533 262.3 174.843 263.79 176.763 265.71C178.683 267.61 180.173 269.89 181.233 272.55C182.293 275.21 182.823 278.13 182.823 281.31ZM174.543 281.31C174.543 278.93 174.223 276.8 173.583 274.92C172.963 273.02 172.053 271.42 170.853 270.12C169.673 268.8 168.233 267.79 166.533 267.09C164.853 266.39 162.953 266.04 160.833 266.04H152.403V296.58H160.833C162.953 296.58 164.853 296.23 166.533 295.53C168.233 294.83 169.673 293.83 170.853 292.53C172.053 291.21 172.963 289.61 173.583 287.73C174.223 285.83 174.543 283.69 174.543 281.31ZM198.047 266.04V278.07H213.227V284.28H198.047V296.55H217.307V303H189.947V259.62H217.307V266.04H198.047ZM264.891 281.31C264.891 284.49 264.361 287.44 263.301 290.16C262.261 292.86 260.781 295.2 258.861 297.18C256.941 299.16 254.631 300.71 251.931 301.83C249.231 302.93 246.231 303.48 242.931 303.48C239.651 303.48 236.661 302.93 233.961 301.83C231.261 300.71 228.941 299.16 227.001 297.18C225.081 295.2 223.591 292.86 222.531 290.16C221.471 287.44 220.941 284.49 220.941 281.31C220.941 278.13 221.471 275.19 222.531 272.49C223.591 269.77 225.081 267.42 227.001 265.44C228.941 263.46 231.261 261.92 233.961 260.82C236.661 259.7 239.651 259.14 242.931 259.14C245.131 259.14 247.201 259.4 249.141 259.92C251.081 260.42 252.861 261.14 254.481 262.08C256.101 263 257.551 264.13 258.831 265.47C260.131 266.79 261.231 268.27 262.131 269.91C263.031 271.55 263.711 273.33 264.171 275.25C264.651 277.17 264.891 279.19 264.891 281.31ZM256.641 281.31C256.641 278.93 256.321 276.8 255.681 274.92C255.041 273.02 254.131 271.41 252.951 270.09C251.771 268.77 250.331 267.76 248.631 267.06C246.951 266.36 245.051 266.01 242.931 266.01C240.811 266.01 238.901 266.36 237.201 267.06C235.521 267.76 234.081 268.77 232.881 270.09C231.701 271.41 230.791 273.02 230.151 274.92C229.511 276.8 229.191 278.93 229.191 281.31C229.191 283.69 229.511 285.83 230.151 287.73C230.791 289.61 231.701 291.21 232.881 292.53C234.081 293.83 235.521 294.83 237.201 295.53C238.901 296.23 240.811 296.58 242.931 296.58C245.051 296.58 246.951 296.23 248.631 295.53C250.331 294.83 251.771 293.83 252.951 292.53C254.131 291.21 255.041 289.61 255.681 287.73C256.321 285.83 256.641 283.69 256.641 281.31Z"
        fill="white" />
</svg>
