<svg width="884" height="408" viewBox="0 0 884 408" fill="none" xmlns="http://www.w3.org/2000/svg">
    <path d="M0 0H883.315V272C883.315 272 496.129 395 248.8 407C146.556 411.961 0 373 0 373V0Z"
        fill="#26D023" />
    <path
        d="M113.87 187.62V231H106.76V202.98C106.76 201.86 106.82 200.65 106.94 199.35L93.83 223.98C93.21 225.16 92.26 225.75 90.98 225.75H89.84C88.56 225.75 87.61 225.16 86.99 223.98L73.73 199.26C73.79 199.92 73.84 200.57 73.88 201.21C73.92 201.85 73.94 202.44 73.94 202.98V231H66.83V187.62H72.92C73.28 187.62 73.59 187.63 73.85 187.65C74.11 187.67 74.34 187.72 74.54 187.8C74.76 187.88 74.95 188.01 75.11 188.19C75.29 188.37 75.46 188.61 75.62 188.91L88.61 213C88.95 213.64 89.26 214.3 89.54 214.98C89.84 215.66 90.13 216.36 90.41 217.08C90.69 216.34 90.98 215.63 91.28 214.95C91.58 214.25 91.9 213.58 92.24 212.94L105.05 188.91C105.21 188.61 105.38 188.37 105.56 188.19C105.74 188.01 105.93 187.88 106.13 187.8C106.35 187.72 106.59 187.67 106.85 187.65C107.11 187.63 107.42 187.62 107.78 187.62H113.87ZM131.649 194.04V206.07H146.829V212.28H131.649V224.55H150.909V231H123.549V187.62H150.909V194.04H131.649ZM181.16 195.51C180.92 195.93 180.66 196.24 180.38 196.44C180.12 196.62 179.79 196.71 179.39 196.71C178.97 196.71 178.51 196.56 178.01 196.26C177.53 195.94 176.95 195.59 176.27 195.21C175.59 194.83 174.79 194.49 173.87 194.19C172.97 193.87 171.9 193.71 170.66 193.71C169.54 193.71 168.56 193.85 167.72 194.13C166.88 194.39 166.17 194.76 165.59 195.24C165.03 195.72 164.61 196.3 164.33 196.98C164.05 197.64 163.91 198.37 163.91 199.17C163.91 200.19 164.19 201.04 164.75 201.72C165.33 202.4 166.09 202.98 167.03 203.46C167.97 203.94 169.04 204.37 170.24 204.75C171.44 205.13 172.67 205.54 173.93 205.98C175.19 206.4 176.42 206.9 177.62 207.48C178.82 208.04 179.89 208.76 180.83 209.64C181.77 210.5 182.52 211.56 183.08 212.82C183.66 214.08 183.95 215.61 183.95 217.41C183.95 219.37 183.61 221.21 182.93 222.93C182.27 224.63 181.29 226.12 179.99 227.4C178.71 228.66 177.14 229.66 175.28 230.4C173.42 231.12 171.29 231.48 168.89 231.48C167.51 231.48 166.15 231.34 164.81 231.06C163.47 230.8 162.18 230.42 160.94 229.92C159.72 229.42 158.57 228.82 157.49 228.12C156.41 227.42 155.45 226.64 154.61 225.78L156.98 221.91C157.18 221.63 157.44 221.4 157.76 221.22C158.08 221.02 158.42 220.92 158.78 220.92C159.28 220.92 159.82 221.13 160.4 221.55C160.98 221.95 161.67 222.4 162.47 222.9C163.27 223.4 164.2 223.86 165.26 224.28C166.34 224.68 167.63 224.88 169.13 224.88C171.43 224.88 173.21 224.34 174.47 223.26C175.73 222.16 176.36 220.59 176.36 218.55C176.36 217.41 176.07 216.48 175.49 215.76C174.93 215.04 174.18 214.44 173.24 213.96C172.3 213.46 171.23 213.04 170.03 212.7C168.83 212.36 167.61 211.99 166.37 211.59C165.13 211.19 163.91 210.71 162.71 210.15C161.51 209.59 160.44 208.86 159.5 207.96C158.56 207.06 157.8 205.94 157.22 204.6C156.66 203.24 156.38 201.57 156.38 199.59C156.38 198.01 156.69 196.47 157.31 194.97C157.95 193.47 158.87 192.14 160.07 190.98C161.27 189.82 162.75 188.89 164.51 188.19C166.27 187.49 168.29 187.14 170.57 187.14C173.13 187.14 175.49 187.54 177.65 188.34C179.81 189.14 181.65 190.26 183.17 191.7L181.16 195.51ZM214.09 195.51C213.85 195.93 213.59 196.24 213.31 196.44C213.05 196.62 212.72 196.71 212.32 196.71C211.9 196.71 211.44 196.56 210.94 196.26C210.46 195.94 209.88 195.59 209.2 195.21C208.52 194.83 207.72 194.49 206.8 194.19C205.9 193.87 204.83 193.71 203.59 193.71C202.47 193.71 201.49 193.85 200.65 194.13C199.81 194.39 199.1 194.76 198.52 195.24C197.96 195.72 197.54 196.3 197.26 196.98C196.98 197.64 196.84 198.37 196.84 199.17C196.84 200.19 197.12 201.04 197.68 201.72C198.26 202.4 199.02 202.98 199.96 203.46C200.9 203.94 201.97 204.37 203.17 204.75C204.37 205.13 205.6 205.54 206.86 205.98C208.12 206.4 209.35 206.9 210.55 207.48C211.75 208.04 212.82 208.76 213.76 209.64C214.7 210.5 215.45 211.56 216.01 212.82C216.59 214.08 216.88 215.61 216.88 217.41C216.88 219.37 216.54 221.21 215.86 222.93C215.2 224.63 214.22 226.12 212.92 227.4C211.64 228.66 210.07 229.66 208.21 230.4C206.35 231.12 204.22 231.48 201.82 231.48C200.44 231.48 199.08 231.34 197.74 231.06C196.4 230.8 195.11 230.42 193.87 229.92C192.65 229.42 191.5 228.82 190.42 228.12C189.34 227.42 188.38 226.64 187.54 225.78L189.91 221.91C190.11 221.63 190.37 221.4 190.69 221.22C191.01 221.02 191.35 220.92 191.71 220.92C192.21 220.92 192.75 221.13 193.33 221.55C193.91 221.95 194.6 222.4 195.4 222.9C196.2 223.4 197.13 223.86 198.19 224.28C199.27 224.68 200.56 224.88 202.06 224.88C204.36 224.88 206.14 224.34 207.4 223.26C208.66 222.16 209.29 220.59 209.29 218.55C209.29 217.41 209 216.48 208.42 215.76C207.86 215.04 207.11 214.44 206.17 213.96C205.23 213.46 204.16 213.04 202.96 212.7C201.76 212.36 200.54 211.99 199.3 211.59C198.06 211.19 196.84 210.71 195.64 210.15C194.44 209.59 193.37 208.86 192.43 207.96C191.49 207.06 190.73 205.94 190.15 204.6C189.59 203.24 189.31 201.57 189.31 199.59C189.31 198.01 189.62 196.47 190.24 194.97C190.88 193.47 191.8 192.14 193 190.98C194.2 189.82 195.68 188.89 197.44 188.19C199.2 187.49 201.22 187.14 203.5 187.14C206.06 187.14 208.42 187.54 210.58 188.34C212.74 189.14 214.58 190.26 216.1 191.7L214.09 195.51ZM245.961 214.62L240.681 200.19C240.421 199.55 240.151 198.79 239.871 197.91C239.591 197.03 239.311 196.08 239.031 195.06C238.771 196.08 238.501 197.04 238.221 197.94C237.941 198.82 237.671 199.59 237.411 200.25L232.161 214.62H245.961ZM260.211 231H253.971C253.271 231 252.701 230.83 252.261 230.49C251.821 230.13 251.491 229.69 251.271 229.17L248.031 220.32H230.061L226.821 229.17C226.661 229.63 226.351 230.05 225.891 230.43C225.431 230.81 224.861 231 224.181 231H217.881L234.951 187.62H243.171L260.211 231ZM299.172 209.25V226.8C296.972 228.42 294.622 229.61 292.122 230.37C289.642 231.11 286.982 231.48 284.142 231.48C280.602 231.48 277.392 230.93 274.512 229.83C271.652 228.73 269.202 227.2 267.162 225.24C265.142 223.28 263.582 220.94 262.482 218.22C261.382 215.5 260.832 212.53 260.832 209.31C260.832 206.05 261.362 203.06 262.422 200.34C263.482 197.62 264.982 195.28 266.922 193.32C268.882 191.36 271.252 189.84 274.032 188.76C276.812 187.68 279.932 187.14 283.392 187.14C285.152 187.14 286.792 187.28 288.312 187.56C289.852 187.84 291.272 188.23 292.572 188.73C293.892 189.21 295.092 189.8 296.172 190.5C297.252 191.2 298.242 191.97 299.142 192.81L296.832 196.47C296.472 197.05 296.002 197.41 295.422 197.55C294.842 197.67 294.212 197.52 293.532 197.1C292.872 196.72 292.212 196.34 291.552 195.96C290.892 195.58 290.152 195.25 289.332 194.97C288.532 194.69 287.622 194.46 286.602 194.28C285.602 194.1 284.442 194.01 283.122 194.01C280.982 194.01 279.042 194.37 277.302 195.09C275.582 195.81 274.112 196.84 272.892 198.18C271.672 199.52 270.732 201.13 270.072 203.01C269.412 204.89 269.082 206.99 269.082 209.31C269.082 211.79 269.432 214.01 270.132 215.97C270.852 217.91 271.852 219.56 273.132 220.92C274.432 222.26 275.992 223.29 277.812 224.01C279.632 224.71 281.662 225.06 283.902 225.06C285.502 225.06 286.932 224.89 288.192 224.55C289.452 224.21 290.682 223.75 291.882 223.17V215.31H286.422C285.902 215.31 285.492 215.17 285.192 214.89C284.912 214.59 284.772 214.23 284.772 213.81V209.25H299.172ZM315.047 194.04V206.07H330.227V212.28H315.047V224.55H334.307V231H306.947V187.62H334.307V194.04H315.047ZM364.149 194.04V206.88H380.409V213.33H364.149V231H356.049V187.62H383.409V194.04H364.149ZM403.143 208.26C404.663 208.26 405.983 208.07 407.103 207.69C408.243 207.31 409.173 206.79 409.893 206.13C410.633 205.45 411.183 204.65 411.543 203.73C411.903 202.81 412.083 201.8 412.083 200.7C412.083 198.5 411.353 196.81 409.893 195.63C408.453 194.45 406.243 193.86 403.263 193.86H398.103V208.26H403.143ZM423.903 231H416.613C415.233 231 414.233 230.46 413.613 229.38L404.493 215.49C404.153 214.97 403.773 214.6 403.353 214.38C402.953 214.16 402.353 214.05 401.553 214.05H398.103V231H390.033V187.62H403.263C406.203 187.62 408.723 187.93 410.823 188.55C412.943 189.15 414.673 190 416.013 191.1C417.373 192.2 418.373 193.52 419.013 195.06C419.653 196.58 419.973 198.26 419.973 200.1C419.973 201.56 419.753 202.94 419.313 204.24C418.893 205.54 418.273 206.72 417.453 207.78C416.653 208.84 415.653 209.77 414.453 210.57C413.273 211.37 411.923 212 410.403 212.46C410.923 212.76 411.403 213.12 411.843 213.54C412.283 213.94 412.683 214.42 413.043 214.98L423.903 231ZM469.372 209.31C469.372 212.49 468.842 215.44 467.782 218.16C466.742 220.86 465.262 223.2 463.342 225.18C461.422 227.16 459.112 228.71 456.412 229.83C453.712 230.93 450.712 231.48 447.412 231.48C444.132 231.48 441.142 230.93 438.442 229.83C435.742 228.71 433.422 227.16 431.482 225.18C429.562 223.2 428.072 220.86 427.012 218.16C425.952 215.44 425.422 212.49 425.422 209.31C425.422 206.13 425.952 203.19 427.012 200.49C428.072 197.77 429.562 195.42 431.482 193.44C433.422 191.46 435.742 189.92 438.442 188.82C441.142 187.7 444.132 187.14 447.412 187.14C449.612 187.14 451.682 187.4 453.622 187.92C455.562 188.42 457.342 189.14 458.962 190.08C460.582 191 462.032 192.13 463.312 193.47C464.612 194.79 465.712 196.27 466.612 197.91C467.512 199.55 468.192 201.33 468.652 203.25C469.132 205.17 469.372 207.19 469.372 209.31ZM461.122 209.31C461.122 206.93 460.802 204.8 460.162 202.92C459.522 201.02 458.612 199.41 457.432 198.09C456.252 196.77 454.812 195.76 453.112 195.06C451.432 194.36 449.532 194.01 447.412 194.01C445.292 194.01 443.382 194.36 441.682 195.06C440.002 195.76 438.562 196.77 437.362 198.09C436.182 199.41 435.272 201.02 434.632 202.92C433.992 204.8 433.672 206.93 433.672 209.31C433.672 211.69 433.992 213.83 434.632 215.73C435.272 217.61 436.182 219.21 437.362 220.53C438.562 221.83 440.002 222.83 441.682 223.53C443.382 224.23 445.292 224.58 447.412 224.58C449.532 224.58 451.432 224.23 453.112 223.53C454.812 222.83 456.252 221.83 457.432 220.53C458.612 219.21 459.522 217.61 460.162 215.73C460.802 213.83 461.122 211.69 461.122 209.31ZM523.499 187.62V231H516.389V202.98C516.389 201.86 516.449 200.65 516.569 199.35L503.459 223.98C502.839 225.16 501.889 225.75 500.609 225.75H499.469C498.189 225.75 497.239 225.16 496.619 223.98L483.359 199.26C483.419 199.92 483.469 200.57 483.509 201.21C483.549 201.85 483.569 202.44 483.569 202.98V231H476.459V187.62H482.549C482.909 187.62 483.219 187.63 483.479 187.65C483.739 187.67 483.969 187.72 484.169 187.8C484.389 187.88 484.579 188.01 484.739 188.19C484.919 188.37 485.089 188.61 485.249 188.91L498.239 213C498.579 213.64 498.889 214.3 499.169 214.98C499.469 215.66 499.759 216.36 500.039 217.08C500.319 216.34 500.609 215.63 500.909 214.95C501.209 214.25 501.529 213.58 501.869 212.94L514.679 188.91C514.839 188.61 515.009 188.37 515.189 188.19C515.369 188.01 515.559 187.88 515.759 187.8C515.979 187.72 516.219 187.67 516.479 187.65C516.739 187.63 517.049 187.62 517.409 187.62H523.499ZM563.995 214.2V231H555.955V214.2L540.145 187.62H547.255C547.955 187.62 548.505 187.79 548.905 188.13C549.325 188.47 549.675 188.9 549.955 189.42L557.875 203.91C558.335 204.77 558.735 205.58 559.075 206.34C559.435 207.1 559.755 207.86 560.035 208.62C560.295 207.86 560.595 207.1 560.935 206.34C561.275 205.58 561.665 204.77 562.105 203.91L569.995 189.42C570.215 188.98 570.545 188.57 570.985 188.19C571.425 187.81 571.985 187.62 572.665 187.62H579.805L563.995 214.2ZM623.122 209.31C623.122 212.49 622.592 215.44 621.532 218.16C620.492 220.86 619.012 223.2 617.092 225.18C615.172 227.16 612.862 228.71 610.162 229.83C607.462 230.93 604.462 231.48 601.162 231.48C597.882 231.48 594.892 230.93 592.192 229.83C589.492 228.71 587.172 227.16 585.232 225.18C583.312 223.2 581.822 220.86 580.762 218.16C579.702 215.44 579.172 212.49 579.172 209.31C579.172 206.13 579.702 203.19 580.762 200.49C581.822 197.77 583.312 195.42 585.232 193.44C587.172 191.46 589.492 189.92 592.192 188.82C594.892 187.7 597.882 187.14 601.162 187.14C603.362 187.14 605.432 187.4 607.372 187.92C609.312 188.42 611.092 189.14 612.712 190.08C614.332 191 615.782 192.13 617.062 193.47C618.362 194.79 619.462 196.27 620.362 197.91C621.262 199.55 621.942 201.33 622.402 203.25C622.882 205.17 623.122 207.19 623.122 209.31ZM614.872 209.31C614.872 206.93 614.552 204.8 613.912 202.92C613.272 201.02 612.362 199.41 611.182 198.09C610.002 196.77 608.562 195.76 606.862 195.06C605.182 194.36 603.282 194.01 601.162 194.01C599.042 194.01 597.132 194.36 595.432 195.06C593.752 195.76 592.312 196.77 591.112 198.09C589.932 199.41 589.022 201.02 588.382 202.92C587.742 204.8 587.422 206.93 587.422 209.31C587.422 211.69 587.742 213.83 588.382 215.73C589.022 217.61 589.932 219.21 591.112 220.53C592.312 221.83 593.752 222.83 595.432 223.53C597.132 224.23 599.042 224.58 601.162 224.58C603.282 224.58 605.182 224.23 606.862 223.53C608.562 222.83 610.002 221.83 611.182 220.53C612.362 219.21 613.272 217.61 613.912 215.73C614.552 213.83 614.872 211.69 614.872 209.31ZM647.669 224.49C649.229 224.49 650.619 224.23 651.839 223.71C653.079 223.19 654.119 222.46 654.959 221.52C655.799 220.58 656.439 219.44 656.879 218.1C657.339 216.76 657.569 215.26 657.569 213.6V187.62H665.639V213.6C665.639 216.18 665.219 218.57 664.379 220.77C663.559 222.95 662.369 224.84 660.809 226.44C659.269 228.02 657.389 229.26 655.169 230.16C652.949 231.04 650.449 231.48 647.669 231.48C644.869 231.48 642.359 231.04 640.139 230.16C637.919 229.26 636.029 228.02 634.469 226.44C632.929 224.84 631.739 222.95 630.899 220.77C630.079 218.57 629.669 216.18 629.669 213.6V187.62H637.739V213.57C637.739 215.23 637.959 216.73 638.399 218.07C638.859 219.41 639.509 220.56 640.349 221.52C641.209 222.46 642.249 223.19 643.469 223.71C644.709 224.23 646.109 224.49 647.669 224.49ZM687.85 208.26C689.37 208.26 690.69 208.07 691.81 207.69C692.95 207.31 693.88 206.79 694.6 206.13C695.34 205.45 695.89 204.65 696.25 203.73C696.61 202.81 696.79 201.8 696.79 200.7C696.79 198.5 696.06 196.81 694.6 195.63C693.16 194.45 690.95 193.86 687.97 193.86H682.81V208.26H687.85ZM708.61 231H701.32C699.94 231 698.94 230.46 698.32 229.38L689.2 215.49C688.86 214.97 688.48 214.6 688.06 214.38C687.66 214.16 687.06 214.05 686.26 214.05H682.81V231H674.74V187.62H687.97C690.91 187.62 693.43 187.93 695.53 188.55C697.65 189.15 699.38 190 700.72 191.1C702.08 192.2 703.08 193.52 703.72 195.06C704.36 196.58 704.68 198.26 704.68 200.1C704.68 201.56 704.46 202.94 704.02 204.24C703.6 205.54 702.98 206.72 702.16 207.78C701.36 208.84 700.36 209.77 699.16 210.57C697.98 211.37 696.63 212 695.11 212.46C695.63 212.76 696.11 213.12 696.55 213.54C696.99 213.94 697.39 214.42 697.75 214.98L708.61 231ZM80.93 281.43C82.41 281.43 83.7 281.25 84.8 280.89C85.9 280.51 86.81 279.98 87.53 279.3C88.27 278.6 88.82 277.76 89.18 276.78C89.54 275.78 89.72 274.67 89.72 273.45C89.72 272.29 89.54 271.24 89.18 270.3C88.82 269.36 88.28 268.56 87.56 267.9C86.84 267.24 85.93 266.74 84.83 266.4C83.73 266.04 82.43 265.86 80.93 265.86H74.9V281.43H80.93ZM80.93 259.62C83.83 259.62 86.34 259.96 88.46 260.64C90.58 261.32 92.33 262.27 93.71 263.49C95.09 264.71 96.11 266.17 96.77 267.87C97.45 269.57 97.79 271.43 97.79 273.45C97.79 275.55 97.44 277.48 96.74 279.24C96.04 280.98 94.99 282.48 93.59 283.74C92.19 285 90.43 285.98 88.31 286.68C86.21 287.38 83.75 287.73 80.93 287.73H74.9V303H66.83V259.62H80.93ZM140.548 259.62V303H132.448V284.04H112.078V303H103.978V259.62H112.078V278.28H132.448V259.62H140.548ZM173.129 286.62L167.849 272.19C167.589 271.55 167.319 270.79 167.039 269.91C166.759 269.03 166.479 268.08 166.199 267.06C165.939 268.08 165.669 269.04 165.389 269.94C165.109 270.82 164.839 271.59 164.579 272.25L159.329 286.62H173.129ZM187.379 303H181.139C180.439 303 179.869 302.83 179.429 302.49C178.989 302.13 178.659 301.69 178.439 301.17L175.199 292.32H157.229L153.989 301.17C153.829 301.63 153.519 302.05 153.059 302.43C152.599 302.81 152.029 303 151.349 303H145.049L162.119 259.62H170.339L187.379 303ZM204.979 280.26C206.499 280.26 207.819 280.07 208.939 279.69C210.079 279.31 211.009 278.79 211.729 278.13C212.469 277.45 213.019 276.65 213.379 275.73C213.739 274.81 213.919 273.8 213.919 272.7C213.919 270.5 213.189 268.81 211.729 267.63C210.289 266.45 208.079 265.86 205.099 265.86H199.939V280.26H204.979ZM225.739 303H218.449C217.069 303 216.069 302.46 215.449 301.38L206.329 287.49C205.989 286.97 205.609 286.6 205.189 286.38C204.789 286.16 204.189 286.05 203.389 286.05H199.939V303H191.869V259.62H205.099C208.039 259.62 210.559 259.93 212.659 260.55C214.779 261.15 216.509 262 217.849 263.1C219.209 264.2 220.209 265.52 220.849 267.06C221.489 268.58 221.809 270.26 221.809 272.1C221.809 273.56 221.589 274.94 221.149 276.24C220.729 277.54 220.109 278.72 219.289 279.78C218.489 280.84 217.489 281.77 216.289 282.57C215.109 283.37 213.759 284 212.239 284.46C212.759 284.76 213.239 285.12 213.679 285.54C214.119 285.94 214.519 286.42 214.879 286.98L225.739 303ZM277.464 259.62V303H270.354V274.98C270.354 273.86 270.414 272.65 270.534 271.35L257.424 295.98C256.804 297.16 255.854 297.75 254.574 297.75H253.434C252.154 297.75 251.204 297.16 250.584 295.98L237.324 271.26C237.384 271.92 237.434 272.57 237.474 273.21C237.514 273.85 237.534 274.44 237.534 274.98V303H230.424V259.62H236.514C236.874 259.62 237.184 259.63 237.444 259.65C237.704 259.67 237.934 259.72 238.134 259.8C238.354 259.88 238.544 260.01 238.704 260.19C238.884 260.37 239.054 260.61 239.214 260.91L252.204 285C252.544 285.64 252.854 286.3 253.134 286.98C253.434 287.66 253.724 288.36 254.004 289.08C254.284 288.34 254.574 287.63 254.874 286.95C255.174 286.25 255.494 285.58 255.834 284.94L268.644 260.91C268.804 260.61 268.974 260.37 269.154 260.19C269.334 260.01 269.524 259.88 269.724 259.8C269.944 259.72 270.184 259.67 270.444 259.65C270.704 259.63 271.014 259.62 271.374 259.62H277.464ZM310.063 286.62L304.783 272.19C304.523 271.55 304.253 270.79 303.973 269.91C303.693 269.03 303.413 268.08 303.133 267.06C302.873 268.08 302.603 269.04 302.323 269.94C302.043 270.82 301.773 271.59 301.513 272.25L296.263 286.62H310.063ZM324.313 303H318.073C317.373 303 316.803 302.83 316.363 302.49C315.923 302.13 315.593 301.69 315.372 301.17L312.133 292.32H294.163L290.923 301.17C290.763 301.63 290.453 302.05 289.993 302.43C289.533 302.81 288.963 303 288.283 303H281.982L299.053 259.62H307.273L324.313 303ZM357.304 292.77C357.744 292.77 358.134 292.94 358.474 293.28L361.654 296.73C359.894 298.91 357.724 300.58 355.144 301.74C352.584 302.9 349.504 303.48 345.904 303.48C342.684 303.48 339.784 302.93 337.204 301.83C334.644 300.73 332.454 299.2 330.634 297.24C328.814 295.28 327.414 292.94 326.434 290.22C325.474 287.5 324.994 284.53 324.994 281.31C324.994 278.05 325.514 275.07 326.554 272.37C327.594 269.65 329.054 267.31 330.934 265.35C332.834 263.39 335.094 261.87 337.714 260.79C340.334 259.69 343.234 259.14 346.414 259.14C349.574 259.14 352.374 259.66 354.814 260.7C357.274 261.74 359.364 263.1 361.084 264.78L358.384 268.53C358.224 268.77 358.014 268.98 357.754 269.16C357.514 269.34 357.174 269.43 356.734 269.43C356.434 269.43 356.124 269.35 355.804 269.19C355.484 269.01 355.134 268.8 354.754 268.56C354.374 268.3 353.934 268.02 353.434 267.72C352.934 267.42 352.354 267.15 351.694 266.91C351.034 266.65 350.264 266.44 349.384 266.28C348.524 266.1 347.524 266.01 346.384 266.01C344.444 266.01 342.664 266.36 341.044 267.06C339.444 267.74 338.064 268.74 336.904 270.06C335.744 271.36 334.844 272.96 334.204 274.86C333.564 276.74 333.244 278.89 333.244 281.31C333.244 283.75 333.584 285.92 334.264 287.82C334.964 289.72 335.904 291.32 337.084 292.62C338.264 293.92 339.654 294.92 341.254 295.62C342.854 296.3 344.574 296.64 346.414 296.64C347.514 296.64 348.504 296.58 349.384 296.46C350.284 296.34 351.104 296.15 351.844 295.89C352.604 295.63 353.314 295.3 353.974 294.9C354.654 294.48 355.324 293.97 355.984 293.37C356.184 293.19 356.394 293.05 356.614 292.95C356.834 292.83 357.064 292.77 357.304 292.77ZM375.282 303H367.182V259.62H375.282V303ZM408.094 267.51C407.854 267.93 407.594 268.24 407.314 268.44C407.054 268.62 406.724 268.71 406.324 268.71C405.904 268.71 405.444 268.56 404.944 268.26C404.464 267.94 403.884 267.59 403.204 267.21C402.524 266.83 401.724 266.49 400.804 266.19C399.904 265.87 398.834 265.71 397.594 265.71C396.474 265.71 395.494 265.85 394.654 266.13C393.814 266.39 393.104 266.76 392.524 267.24C391.964 267.72 391.544 268.3 391.264 268.98C390.984 269.64 390.844 270.37 390.844 271.17C390.844 272.19 391.124 273.04 391.684 273.72C392.264 274.4 393.024 274.98 393.964 275.46C394.904 275.94 395.974 276.37 397.174 276.75C398.374 277.13 399.604 277.54 400.864 277.98C402.124 278.4 403.354 278.9 404.554 279.48C405.754 280.04 406.824 280.76 407.764 281.64C408.704 282.5 409.454 283.56 410.014 284.82C410.594 286.08 410.884 287.61 410.884 289.41C410.884 291.37 410.544 293.21 409.864 294.93C409.204 296.63 408.224 298.12 406.924 299.4C405.644 300.66 404.074 301.66 402.214 302.4C400.354 303.12 398.224 303.48 395.824 303.48C394.444 303.48 393.084 303.34 391.744 303.06C390.404 302.8 389.114 302.42 387.874 301.92C386.654 301.42 385.504 300.82 384.424 300.12C383.344 299.42 382.384 298.64 381.544 297.78L383.914 293.91C384.114 293.63 384.374 293.4 384.694 293.22C385.014 293.02 385.354 292.92 385.714 292.92C386.214 292.92 386.754 293.13 387.334 293.55C387.914 293.95 388.604 294.4 389.404 294.9C390.204 295.4 391.134 295.86 392.194 296.28C393.274 296.68 394.564 296.88 396.064 296.88C398.364 296.88 400.144 296.34 401.404 295.26C402.664 294.16 403.294 292.59 403.294 290.55C403.294 289.41 403.004 288.48 402.424 287.76C401.864 287.04 401.114 286.44 400.174 285.96C399.234 285.46 398.164 285.04 396.964 284.7C395.764 284.36 394.544 283.99 393.304 283.59C392.064 283.19 390.844 282.71 389.644 282.15C388.444 281.59 387.374 280.86 386.434 279.96C385.494 279.06 384.734 277.94 384.154 276.6C383.594 275.24 383.314 273.57 383.314 271.59C383.314 270.01 383.624 268.47 384.244 266.97C384.884 265.47 385.804 264.14 387.004 262.98C388.204 261.82 389.684 260.89 391.444 260.19C393.204 259.49 395.224 259.14 397.504 259.14C400.064 259.14 402.424 259.54 404.584 260.34C406.744 261.14 408.584 262.26 410.104 263.7L408.094 267.51ZM448.224 266.25H435.144V303H427.074V266.25H413.994V259.62H448.224V266.25Z"
        fill="white" />
</svg>
