<?xml version="1.0" encoding="iso-8859-1"?><!-- Generator: Adobe Illustrator 19.0.0, SVG Export Plug-In . SVG Version: 6.00 Build 0)  -->
<svg version="1.1" id="Layer_1" xmlns="http://www.w3.org/2000/svg"  x="0px" y="0px"
	 viewBox="0 0 512 512" style="enable-background:new 0 0 512 512;" xml:space="preserve">
<path style="fill:#D83E32;" d="M217.331,80.158L71.78,122.709L52.859,57.983c-3.329-11.366,3.189-23.275,14.555-26.604l31.654-9.252
	l72.737-21.263c11.366-3.316,23.275,3.202,26.604,14.568l18.82,64.359L217.331,80.158z"/>
<path style="fill:#ED5343;" d="M217.23,79.791l-110.011,32.16L88.297,47.225c-2.936-10.037,1.797-20.491,10.771-25.098
	l72.737-21.263c11.366-3.316,23.275,3.202,26.604,14.568L217.23,79.791z"/>
<path style="fill:#A4DDD8;" d="M385.243,498.948h72.115c5.13,0,9.287-4.158,9.287-9.287v-91.896c0-5.13-4.159-9.287-9.287-9.287
	h-72.115"/>
<path style="fill:#96CCC6;" d="M385.243,498.948h72.115c5.13,0,9.287-4.158,9.287-9.287v-22.276h-81.403"/>
<polyline style="fill:#BBEAE4;" points="385.243,437.01 466.646,437.01 466.646,412.962 385.243,412.962 "/>
<path style="fill:#EABB5E;" d="M388.41,384.384v117.39c0,5.645-4.582,10.227-10.226,10.227H180.766
	c-16.023,0-30.123-10.568-34.616-25.946L45.948,143.314c-2.278-7.796,2.19-15.96,9.986-18.238l38.678-11.302l139.944-40.906
	c7.796-2.278,15.96,2.19,18.238,9.986l85.166,291.304h40.223C383.828,374.157,388.41,378.739,388.41,384.384z"/>
<path style="fill:#F9CF70;" d="M388.41,384.384v117.39c0,5.645-4.582,10.227-10.226,10.227H236.455
	c-16.023,0-30.123-10.568-34.616-25.946L94.613,113.773l139.944-40.906c7.796-2.278,15.96,2.19,18.238,9.986l85.166,291.304h40.223
	C383.828,374.157,388.41,378.739,388.41,384.384z"/>
<polygon style="fill:#EABB5E;" points="337.961,374.157 216.102,374.157 330.773,349.57 "/>
<path style="fill:#D3C8BA;" d="M388.41,384.384v117.39c0,5.645-4.582,10.227-10.226,10.227V374.157
	C383.828,374.157,388.41,378.739,388.41,384.384z"/>
<path style="fill:#EABB5E;" d="M252.794,82.853l-206.846,60.46c-2.278-7.796,2.19-15.96,9.986-18.238l38.678-11.302l139.944-40.906
	C242.353,70.589,250.516,75.057,252.794,82.853z"/>
<g>
</g>
<g>
</g>
<g>
</g>
<g>
</g>
<g>
</g>
<g>
</g>
<g>
</g>
<g>
</g>
<g>
</g>
<g>
</g>
<g>
</g>
<g>
</g>
<g>
</g>
<g>
</g>
<g>
</g>
</svg>
