<svg width="288" height="378" viewBox="0 0 288 378" fill="none" xmlns="http://www.w3.org/2000/svg">
<path d="M208.643 343.45L204.494 344.627C197.909 346.437 190.975 344.163 187.13 338.95L14.02 101.935C9.55053 95.8391 11.0771 87.3939 17.4804 82.7492L84.5267 33.9741C87.6707 31.668 91.2463 30.0054 95.0076 28.9971L98.8842 27.956L208.643 343.45Z" fill="#414753"/>
<path d="M196.549 340.107L21.6903 100.878C16.9087 94.3404 18.4956 85.23 25.3557 80.22L93.6949 30.0765C98.6969 26.4185 105.694 27.3786 109.227 32.1495L264.054 244.013C267.202 248.304 267.32 253.985 264.449 258.57L213.794 339.22C209.865 345.342 200.722 345.816 196.549 340.107Z" fill="white"/>
<path d="M19.1917 96.4613C17.4744 90.4093 19.8039 83.916 25.1629 79.98L93.5022 29.8365C95.9744 28.0157 99.002 27.2744 102.035 27.6508C105.069 28.0273 107.689 29.5813 109.427 31.9749L264.253 243.839C265.174 245.109 265.88 246.499 266.298 247.971C267.319 251.57 266.753 255.501 264.683 258.739L214.029 339.388C212.143 342.398 208.875 344.268 205.316 344.453C201.757 344.638 198.383 343.062 196.365 340.336L21.433 101.068C20.4081 99.6508 19.6558 98.0969 19.1917 96.4613ZM265.722 248.135C265.319 246.717 264.687 245.365 263.797 244.204L108.955 32.2856C107.321 30.0392 104.847 28.5615 101.944 28.2069C99.0991 27.836 96.1867 28.5446 93.8719 30.2618L25.5327 80.4053C20.3732 84.1669 18.1547 90.393 19.8101 96.2269C20.2588 97.808 20.9956 99.3074 22.005 100.67L196.848 339.845C198.778 342.479 201.933 343.94 205.304 343.75C208.674 343.559 211.785 341.793 213.544 338.996L264.156 258.417C266.142 255.321 266.696 251.57 265.722 248.135Z" fill="#221F1F"/>
<path d="M193.427 324.497L34.3854 106.996L114.483 44.0897L253.686 234.465L193.427 324.497Z" fill="#437CBF"/>
<path d="M114.483 44.0898L68.0951 80.5229L220.334 188.905L114.483 44.0898Z" fill="url(#paint0_linear)"/>
<path d="M32.5795 98.4358C32.4558 97.9996 32.6201 97.4817 33.0347 97.1873L53.9789 81.465C54.5509 81.067 55.3198 81.1434 55.7781 81.6614C56.1788 82.1957 56.0763 82.9317 55.5198 83.3842L34.5756 99.1066C34.0036 99.5045 33.2347 99.4282 32.7764 98.9102C32.7145 98.6921 32.6105 98.5449 32.5795 98.4358Z" fill="#414753"/>
<defs>
<linearGradient id="paint0_linear" x1="53.3928" y1="202.445" x2="163.956" y2="112.154" gradientUnits="userSpaceOnUse">
<stop offset="0.00531915" stop-color="#F0EEED"/>
<stop offset="0.1207" stop-color="#E5E7EA"/>
<stop offset="0.3219" stop-color="#C9D4E2"/>
<stop offset="0.585" stop-color="#9AB5D6"/>
<stop offset="0.8967" stop-color="#5A8BC5"/>
<stop offset="1" stop-color="#437CBF"/>
</linearGradient>
</defs>
</svg>
